# File created by Blade
# Date/Time:  Wed Jan 21 14:55:15 2015
# Frame Rate: 120.000 fps
#------------------------------------------------------
:FULLY-SPECIFIED
:DEGREES
172
root 16.392169 35.599865 -19.981388 -176.216900 36.598504 -179.416446
Spine 4.330866 -8.465511 -5.557444
Head 28.616034 -29.733696 9.126041
LeftShoulder -10.839473 -19.721602 2.023789
LeftArm -14.657478 9.209754 -74.938565
LeftForeArm -2.608050 -0.000000 5.709557
LeftHand -5.072751 -0.000000 4.822009
LeftHandThumb1 -26.253704 0.000000 33.147579
RightShoulder -16.980122 -18.336353 13.993966
RightArm 6.876096 -2.943765 76.038396
RightForeArm -27.890736 -0.000000 18.605765
RightHand -3.008873 -0.000000 6.853270
RightHandThumb1 -24.326973 -0.000000 -32.862282
LeftUpLeg 0.096463 30.837179 -3.640788
LeftLeg 0.784126 -0.000000 -0.000000
LeftFoot -28.359711 41.567891 -18.128595
LeftToeBase 24.744105 -0.000000 -0.000000
RightUpLeg -20.919312 -18.770736 0.302764
RightLeg 12.346791 -0.000000 -0.000000
RightFoot -18.773762 -28.047888 18.664972
RightToeBase 5.503888 -0.000000 -0.000000
173
root 16.445706 35.588014 -19.999512 -176.441600 37.006971 -179.529084
Spine 4.551804 -8.739491 -5.626634
Head 28.671977 -29.607545 9.083867
LeftShoulder -10.756358 -19.754088 2.148040
LeftArm -14.600241 9.284799 -74.550305
LeftForeArm -2.740989 -0.000000 5.912990
LeftHand -4.923048 -0.000000 5.490723
LeftHandThumb1 -26.253704 0.000000 33.147579
RightShoulder -16.983260 -18.391396 13.929265
RightArm 6.692254 -2.510054 76.184707
RightForeArm -28.003176 -0.000000 18.657550
RightHand -2.938258 -0.000000 6.937738
RightHandThumb1 -24.326973 -0.000000 -32.862282
LeftUpLeg 0.237836 30.900477 -3.572566
LeftLeg 1.082151 -0.000000 -0.000000
LeftFoot -28.721089 41.791367 -18.463402
LeftToeBase 24.709262 -0.000000 -0.000000
RightUpLeg -20.616690 -19.525824 0.296901
RightLeg 11.131104 -0.000000 -0.000000
RightFoot -18.574907 -30.064489 18.229487
RightToeBase 5.806142 -0.000000 -0.000000
174
root 16.501719 35.575559 -20.009574 -176.577923 37.333767 -179.622202
Spine 4.697076 -9.055620 -5.680021
Head 28.785225 -29.564534 9.021028
LeftShoulder -10.710771 -19.763906 2.306492
LeftArm -14.477048 9.321844 -74.143609
LeftForeArm -2.847880 -0.000000 6.031309
LeftHand -4.677273 0.000000 5.959420
LeftHandThumb1 -26.253704 0.000000 33.147579
RightShoulder -16.987291 -18.489481 13.929913
RightArm 6.535715 -2.204011 76.256546
RightForeArm -27.955636 -0.000000 18.793804
RightHand -2.946789 0.000000 7.243412
RightHandThumb1 -24.326973 -0.000000 -32.862282
LeftUpLeg 0.245509 31.069859 -3.522796
LeftLeg 1.425052 -0.000000 -0.000000
LeftFoot -28.992500 41.890455 -18.622796
LeftToeBase 24.747398 -0.000000 -0.000000
RightUpLeg -20.374088 -20.224620 0.302701
RightLeg 9.944347 -0.000000 -0.000000
RightFoot -18.357087 -31.884216 17.871857
RightToeBase 5.682428 -0.000000 -0.000000
175
root 16.555209 35.560762 -20.023030 -176.750223 37.643666 -179.750650
Spine 4.863945 -9.354766 -5.743512
Head 28.812099 -29.498863 9.016203
LeftShoulder -10.667097 -19.819736 2.460641
LeftArm -14.396319 9.412697 -73.769477
LeftForeArm -2.774322 -0.000000 6.197047
LeftHand -4.536583 0.000000 6.397511
LeftHandThumb1 -26.253704 0.000000 33.147579
RightShoulder -16.973818 -18.466082 13.868302
RightArm 6.246262 -1.888560 76.317151
RightForeArm -27.831270 -0.000000 19.036034
RightHand -2.987694 -0.000000 7.484178
RightHandThumb1 -24.326973 -0.000000 -32.862282
LeftUpLeg 0.270746 31.188743 -3.497897
LeftLeg 1.772816 -0.000000 -0.000000
LeftFoot -29.305461 42.023208 -18.833154
LeftToeBase 24.774344 -0.000000 -0.000000
RightUpLeg -20.131087 -20.919167 0.253078
RightLeg 8.842555 -0.000000 -0.000000
RightFoot -18.011996 -33.270565 17.386963
RightToeBase 5.576367 -0.000000 -0.000000
176
root 16.617367 35.544297 -20.036874 -176.924503 37.975314 -179.881063
Spine 5.006945 -9.567522 -5.817091
Head 28.871166 -29.526717 8.975663
LeftShoulder -10.557328 -19.838901 2.591896
LeftArm -14.289164 9.435444 -73.350461
LeftForeArm -2.992936 -0.000000 6.338352
LeftHand -4.240480 -0.000000 6.729337
LeftHandThumb1 -26.253704 0.000000 33.147579
RightShoulder -17.012286 -18.515132 13.852704
RightArm 6.079228 -1.764920 76.359031
RightForeArm -27.760877 -0.000000 19.130314
RightHand -2.914041 0.000000 7.324637
RightHandThumb1 -24.326973 -0.000000 -32.862282
LeftUpLeg 0.323387 31.271096 -3.461132
LeftLeg 2.091489 -0.000000 -0.000000
LeftFoot -29.638036 42.190655 -19.095425
LeftToeBase 24.733269 -0.000000 -0.000000
RightUpLeg -19.876271 -21.535403 0.204056
RightLeg 7.797193 -0.000000 -0.000000
RightFoot -17.506784 -34.375095 16.755505
RightToeBase 5.710173 -0.000000 -0.000000
177
root 16.683573 35.525414 -20.052172 -177.141586 38.305331 -180.013980
Spine 5.198591 -9.700914 -5.891913
Head 28.886218 -29.585291 8.989836
LeftShoulder -10.360414 -19.962863 2.724889
LeftArm -14.329846 9.343983 -72.923028
LeftForeArm -2.920883 -0.000000 6.553864
LeftHand -4.005179 -0.000000 7.046167
LeftHandThumb1 -26.253704 0.000000 33.147579
RightShoulder -17.071264 -18.504242 13.842640
RightArm 5.868993 -1.714571 76.384352
RightForeArm -27.500944 -0.000000 19.251794
RightHand -2.889590 -0.000000 7.114605
RightHandThumb1 -24.326973 -0.000000 -32.862282
LeftUpLeg 0.436071 31.350619 -3.389654
LeftLeg 2.406127 -0.000000 -0.000000
LeftFoot -29.974736 42.363590 -19.340838
LeftToeBase 24.723776 -0.000000 -0.000000
RightUpLeg -19.579518 -22.127526 0.123925
RightLeg 6.836936 -0.000000 -0.000000
RightFoot -16.944695 -35.027235 16.352960
RightToeBase 5.238905 -0.000000 -0.000000
178
root 16.751152 35.505059 -20.069039 -177.326793 38.680822 -180.169918
Spine 5.317638 -9.828345 -5.982630
Head 28.933342 -29.627857 8.974522
LeftShoulder -10.261308 -19.987652 2.846593
LeftArm -14.267477 9.310015 -72.507720
LeftForeArm -2.738779 -0.000000 6.780747
LeftHand -3.850172 0.000000 7.549010
LeftHandThumb1 -26.253704 0.000000 33.147579
RightShoulder -17.094868 -18.473272 13.814710
RightArm 5.656851 -1.778132 76.350112
RightForeArm -27.319883 0.000000 19.336343
RightHand -2.820707 -0.000000 7.037824
RightHandThumb1 -24.326973 -0.000000 -32.862282
LeftUpLeg 0.524598 31.540514 -3.354569
LeftLeg 2.680798 -0.000000 -0.000000
LeftFoot -30.237953 42.488718 -19.496560
LeftToeBase 24.785834 -0.000000 -0.000000
RightUpLeg -19.343018 -22.579623 0.022509
RightLeg 5.980575 -0.000000 -0.000000
RightFoot -16.411556 -35.352580 15.914588
RightToeBase 5.446284 -0.000000 -0.000000
